<?xml version="1.0" standalone="no"?>
<!DOCTYPE svg PUBLIC "-//W3C//DTD SVG 20010904//EN"
 "http://www.w3.org/TR/2001/REC-SVG-20010904/DTD/svg10.dtd">
<svg version="1.0" xmlns="http://www.w3.org/2000/svg"
 width="225.000000pt" height="225.000000pt" viewBox="0 0 225.000000 225.000000"
 preserveAspectRatio="xMidYMid meet">
<metadata>
Created by potrace 1.14, written by Peter Selinger 2001-2017
</metadata>
<g transform="translate(0.000000,225.000000) scale(0.100000,-0.100000)"
fill="#000000" stroke="none">
<path d="M950 2230 c-8 -4 -40 -13 -70 -20 -146 -32 -313 -103 -405 -172 -115
-87 -219 -192 -279 -283 -52 -78 -86 -142 -79 -149 4 -3 2 -6 -4 -6 -13 0 -76
-167 -68 -180 3 -5 1 -10 -4 -12 -6 -1 -12 -16 -15 -33 -3 -16 -8 -40 -10 -52
-3 -13 0 -23 6 -23 6 0 5 -7 -3 -17 -15 -17 -14 -19 4 -42 8 -9 8 -12 1 -8 -7
4 -11 -30 -10 -113 0 -66 4 -120 9 -120 4 0 5 -6 0 -12 -4 -7 -7 -20 -6 -28 8
-70 15 -110 21 -106 4 2 8 -12 9 -32 1 -19 5 -38 10 -41 4 -3 10 -17 11 -31 2
-14 8 -26 13 -28 5 -2 9 -12 9 -23 0 -10 15 -46 33 -80 47 -89 52 -98 76 -125
11 -13 18 -24 14 -24 -3 0 4 -8 15 -19 12 -10 22 -22 22 -27 0 -24 242 -234
270 -234 5 0 10 -5 10 -12 0 -6 3 -8 7 -5 3 4 11 3 17 -2 29 -23 108 -61 116
-56 6 3 10 1 10 -4 0 -6 7 -11 15 -11 8 0 15 -4 15 -10 0 -5 13 -10 29 -10 17
0 33 -5 36 -11 4 -6 13 -8 20 -5 7 2 16 2 20 -2 4 -4 10 -7 13 -8 4 0 14 -3
22 -7 43 -16 100 -25 185 -29 33 -2 63 -7 67 -13 5 -6 8 -5 8 2 0 9 7 10 26 3
18 -7 23 -7 18 1 -5 8 -1 8 14 0 14 -7 23 -8 27 -1 4 7 13 7 26 0 10 -6 19 -7
19 -3 0 4 17 9 38 10 38 1 97 9 97 13 0 1 16 4 35 7 19 2 37 9 38 14 2 5 8 7
12 4 5 -3 25 1 45 9 19 8 36 15 38 15 30 -4 250 117 311 171 72 64 131 123
129 131 -2 4 5 11 15 14 21 7 65 62 65 81 0 7 5 12 11 11 6 -1 10 4 8 11 -1 6
2 12 8 12 10 0 90 158 90 177 0 6 4 13 8 15 4 2 19 28 32 58 24 54 25 61 28
353 3 283 2 301 -18 354 -12 31 -24 61 -28 67 -4 6 -7 13 -7 16 0 20 -40 88
-48 83 -6 -3 -7 -1 -3 5 9 14 -98 182 -115 182 -7 0 -9 3 -6 7 10 9 -14 34
-26 26 -5 -3 -7 -2 -4 4 7 11 -114 133 -132 133 -6 0 -11 4 -11 9 0 22 -253
166 -272 155 -4 -3 -8 -1 -8 4 0 12 -77 35 -90 27 -6 -3 -10 -1 -10 6 0 6 -8
9 -20 6 -11 -3 -20 -1 -20 5 0 6 -9 8 -20 5 -11 -3 -20 -1 -20 4 0 5 -9 9 -21
9 -11 0 -29 5 -39 10 -13 7 -21 7 -25 0 -5 -7 -11 -8 -19 -1 -6 5 -18 6 -25 2
-7 -5 -28 -5 -47 -1 -19 5 -37 4 -40 -1 -3 -5 -10 -6 -16 -3 -11 7 -47 7 -141
2 -26 -2 -48 0 -50 3 -1 4 -9 3 -17 -1z"/>
</g>
</svg>
